<svg xmlns="http://www.w3.org/2000/svg" width="540" height="270" viewBox="0 0 540 270" role="img" aria-label="GitHub work snapshot for Melvinroy">
  <defs>
    <linearGradient id="work-bg" x1="0" y1="0" x2="1" y2="1">
      <stop offset="0%" stop-color="#0f172a" />
      <stop offset="100%" stop-color="#111827" />
    </linearGradient>
  </defs>
  <rect width="540" height="270" rx="22" fill="url(#work-bg)" />
  <rect x="1" y="1" width="538" height="268" rx="21" fill="none" stroke="#243244" />
  <text x="30" y="42" fill="#f8fafc" font-size="24" font-weight="700" font-family="Segoe UI, Arial, sans-serif">GitHub Work Snapshot</text>
  <text x="30" y="66" fill="#93c5fd" font-size="13" font-family="Segoe UI, Arial, sans-serif">Authenticated contribution totals for 2026</text>
  <text x="30" y="86" fill="#94a3b8" font-size="12" font-family="Segoe UI, Arial, sans-serif">Private activity is included when visible to your token.</text>
  
        <g transform="translate(30 104)">
          <rect width="225" height="66" rx="16" fill="#0b1324" stroke="#22314a" />
          <rect x="0" y="0" width="6" height="66" rx="6" fill="#7c3aed" />
          <text x="18" y="26" fill="#94a3b8" font-size="13" font-family="Segoe UI, Arial, sans-serif">Total Contributions</text>
          <text x="18" y="50" fill="#f8fafc" font-size="28" font-weight="700" font-family="Segoe UI, Arial, sans-serif">35</text>
        </g>
      
        <g transform="translate(285 104)">
          <rect width="225" height="66" rx="16" fill="#0b1324" stroke="#22314a" />
          <rect x="0" y="0" width="6" height="66" rx="6" fill="#2563eb" />
          <text x="18" y="26" fill="#94a3b8" font-size="13" font-family="Segoe UI, Arial, sans-serif">Commit Activity</text>
          <text x="18" y="50" fill="#f8fafc" font-size="28" font-weight="700" font-family="Segoe UI, Arial, sans-serif">33</text>
        </g>
      
        <g transform="translate(30 192)">
          <rect width="225" height="66" rx="16" fill="#0b1324" stroke="#22314a" />
          <rect x="0" y="0" width="6" height="66" rx="6" fill="#0f766e" />
          <text x="18" y="26" fill="#94a3b8" font-size="13" font-family="Segoe UI, Arial, sans-serif">Repository Touches</text>
          <text x="18" y="50" fill="#f8fafc" font-size="28" font-weight="700" font-family="Segoe UI, Arial, sans-serif">1</text>
        </g>
      
        <g transform="translate(285 192)">
          <rect width="225" height="66" rx="16" fill="#0b1324" stroke="#22314a" />
          <rect x="0" y="0" width="6" height="66" rx="6" fill="#c2410c" />
          <text x="18" y="26" fill="#94a3b8" font-size="13" font-family="Segoe UI, Arial, sans-serif">Private Work</text>
          <text x="18" y="50" fill="#f8fafc" font-size="28" font-weight="700" font-family="Segoe UI, Arial, sans-serif">1</text>
        </g>
      
  <text x="398" y="247" fill="#64748b" font-size="12" font-family="Segoe UI, Arial, sans-serif">Updated 2026-03-14</text>
</svg>