<svg xmlns="http://www.w3.org/2000/svg" width="540" height="260" viewBox="0 0 540 260" role="img" aria-label="GitHub activity overview for Melvinroy">
  <defs>
    <linearGradient id="activity-bg" x1="0" y1="0" x2="1" y2="1">
      <stop offset="0%" stop-color="#111827" />
      <stop offset="100%" stop-color="#0b1220" />
    </linearGradient>
  </defs>
  <rect width="540" height="260" rx="22" fill="url(#activity-bg)" />
  <rect x="1" y="1" width="538" height="258" rx="21" fill="none" stroke="#243244" />
  <text x="28" y="40" fill="#f8fafc" font-size="24" font-weight="700" font-family="Segoe UI, Arial, sans-serif">Activity Overview</text>
  <text x="28" y="62" fill="#94a3b8" font-size="13" font-family="Segoe UI, Arial, sans-serif">Commit, PR, review, issue, and private contribution mix for 2026</text>
  
        <text x="28" y="90" fill="#cbd5e1" font-size="13" font-family="Segoe UI, Arial, sans-serif">Commits</text>
        <rect x="156" y="76" width="250" height="16" rx="8" fill="#132033" />
        <rect x="156" y="76" width="250" height="16" rx="8" fill="#60a5fa" />
        <text x="422" y="90" fill="#f8fafc" font-size="13" text-anchor="end" font-family="Segoe UI, Arial, sans-serif">33</text>
      
        <text x="28" y="124" fill="#cbd5e1" font-size="13" font-family="Segoe UI, Arial, sans-serif">Pull Requests</text>
        <rect x="156" y="110" width="250" height="16" rx="8" fill="#132033" />
        <rect x="156" y="110" width="6" height="16" rx="8" fill="#a78bfa" />
        <text x="422" y="124" fill="#f8fafc" font-size="13" text-anchor="end" font-family="Segoe UI, Arial, sans-serif">0</text>
      
        <text x="28" y="158" fill="#cbd5e1" font-size="13" font-family="Segoe UI, Arial, sans-serif">Code Reviews</text>
        <rect x="156" y="144" width="250" height="16" rx="8" fill="#132033" />
        <rect x="156" y="144" width="6" height="16" rx="8" fill="#34d399" />
        <text x="422" y="158" fill="#f8fafc" font-size="13" text-anchor="end" font-family="Segoe UI, Arial, sans-serif">0</text>
      
        <text x="28" y="192" fill="#cbd5e1" font-size="13" font-family="Segoe UI, Arial, sans-serif">Issues</text>
        <rect x="156" y="178" width="250" height="16" rx="8" fill="#132033" />
        <rect x="156" y="178" width="6" height="16" rx="8" fill="#f59e0b" />
        <text x="422" y="192" fill="#f8fafc" font-size="13" text-anchor="end" font-family="Segoe UI, Arial, sans-serif">0</text>
      
        <text x="28" y="226" fill="#cbd5e1" font-size="13" font-family="Segoe UI, Arial, sans-serif">Private</text>
        <rect x="156" y="212" width="250" height="16" rx="8" fill="#132033" />
        <rect x="156" y="212" width="8" height="16" rx="8" fill="#f97316" />
        <text x="422" y="226" fill="#f8fafc" font-size="13" text-anchor="end" font-family="Segoe UI, Arial, sans-serif">1</text>
      
  <text x="386" y="236" fill="#64748b" font-size="12" font-family="Segoe UI, Arial, sans-serif">Updated 2026-03-14</text>
</svg>